<svg version="1.2" xmlns="http://www.w3.org/2000/svg" viewBox="0 0 16 16" width="32" height="32">
	<title>basket-svg</title>
	<style>
		.s0 { fill: #000000 } 
	</style>
	<path fill-rule="evenodd" class="s0" d="m3.4 6h9.2l-2.5-4.2q-0.1-0.2-0.1-0.4 0.1-0.2 0.2-0.3 0.2-0.1 0.4-0.1 0.2 0.1 0.3 0.2l2.9 4.8h1.7q0.1 0 0.2 0 0.1 0.1 0.2 0.1 0 0.1 0.1 0.2 0 0.1 0 0.2v1q0 0.1 0 0.2-0.1 0.1-0.1 0.2-0.1 0-0.2 0.1-0.1 0-0.2 0h-0.6l-1.9 6.5q0 0.1-0.1 0.2 0 0.1-0.1 0.1-0.1 0.1-0.2 0.2-0.2 0-0.3 0h-8.6q-0.1 0-0.2 0-0.2-0.1-0.3-0.2-0.1 0-0.1-0.1-0.1-0.1-0.1-0.2l-1.9-6.5h-0.6q-0.1 0-0.2 0-0.1-0.1-0.2-0.1 0-0.1-0.1-0.2 0-0.1 0-0.2v-1q0-0.1 0-0.2 0.1-0.1 0.1-0.2 0.1 0 0.2-0.1 0.1 0 0.2 0h1.7l2.9-4.8q0.1-0.1 0.3-0.2 0.2 0 0.4 0.1 0.1 0.1 0.2 0.3 0 0.2-0.1 0.4zm0.6 6q0.1 0.4 0.3 0.7 0.3 0.3 0.7 0.3 0.5 0 0.8-0.3 0.2-0.3 0.2-0.7v-2q0-0.5-0.2-0.8-0.3-0.2-0.8-0.2-0.4 0-0.7 0.2-0.2 0.3-0.3 0.8zm3 0q0.1 0.4 0.3 0.7 0.3 0.3 0.7 0.3 0.5 0 0.8-0.3 0.2-0.3 0.2-0.7v-2q0-0.5-0.2-0.8-0.3-0.2-0.8-0.2-0.4 0-0.7 0.2-0.2 0.3-0.3 0.8zm3.7-3q-0.2 0.1-0.4 0.2-0.1 0.2-0.2 0.4-0.1 0.2-0.1 0.4v2q0.1 0.4 0.3 0.7 0.3 0.3 0.7 0.3 0.5 0 0.8-0.3 0.2-0.3 0.2-0.7v-2q0-0.2 0-0.4-0.1-0.2-0.2-0.4-0.2-0.1-0.4-0.2-0.2 0-0.4 0-0.2 0-0.3 0z"/>
</svg>